# xmcd
#
# Track frame offsets: 
#        150
#        23183
#        39698
#        65466
#        83422
#        104724
#        118440
#        134987
#        157959
#        177816
#
# Disc length: 2635 seconds
#
# Revision: 0
# Processed by: cddbd v1.5.2PL0 Copyright (c) Steve Scherf et al.
# Submitted via: ExactAudioCopy v0.99pb4
#
DISCID=8c0a490a
DTITLE=Flying Shoes - Flying Shoes
DYEAR=2008
DGENRE=Country
TTITLE0=LA Freeway
TTITLE1=Blue Eyes
TTITLE2=Tecumseh Valley
TTITLE3=Northeast Texas Women
TTITLE4=A Song For You
TTITLE5=Texas Me
TTITLE6=St. John The Gambler
TTITLE7=Silver Raven
TTITLE8=Hold Back The Tears
TTITLE9=Why Me
EXTD=
EXTT0=
EXTT1=
EXTT2=
EXTT3=
EXTT4=
EXTT5=
EXTT6=
EXTT7=
EXTT8=
EXTT9=
PLAYORDER=
